<?xml version="1.0" encoding="utf-8"?>
<svg xmlns="http://www.w3.org/2000/svg" viewBox="0 0 64 64" width="60" height="60">
  <linearGradient id="s66JRfE6sufljUW91PVCTa" x1="18" x2="18" y1="32.833" y2="39.338" gradientUnits="userSpaceOnUse" spreadMethod="reflect">
    <stop offset="0" stop-color="#6dc7ff" />
    <stop offset="1" stop-color="#e6abff" />
  </linearGradient>
  <path fill="url(#s66JRfE6sufljUW91PVCTa)" d="M22,39h-8v-5c0-0.552,0.448-1,1-1h6c0.552,0,1,0.448,1,1V39z" />
  <linearGradient id="s66JRfE6sufljUW91PVCTb" x1="43" x2="43" y1="6.833" y2="58.413" gradientUnits="userSpaceOnUse" spreadMethod="reflect">
    <stop offset="0" stop-color="#1a6dff" />
    <stop offset="1" stop-color="#c822ff" />
  </linearGradient>
  <path fill="url(#s66JRfE6sufljUW91PVCTb)" d="M40 15H46V17H40z" />
  <linearGradient id="s66JRfE6sufljUW91PVCTc" x1="41" x2="41" y1="6.833" y2="58.413" gradientUnits="userSpaceOnUse" spreadMethod="reflect">
    <stop offset="0" stop-color="#1a6dff" />
    <stop offset="1" stop-color="#c822ff" />
  </linearGradient>
  <path fill="url(#s66JRfE6sufljUW91PVCTc)" d="M40 21H42V33H40z" />
  <linearGradient id="s66JRfE6sufljUW91PVCTd" x1="45" x2="45" y1="6.833" y2="58.413" gradientUnits="userSpaceOnUse" spreadMethod="reflect">
    <stop offset="0" stop-color="#1a6dff" />
    <stop offset="1" stop-color="#c822ff" />
  </linearGradient>
  <path fill="url(#s66JRfE6sufljUW91PVCTd)" d="M44 21H46V33H44z" />
  <linearGradient id="s66JRfE6sufljUW91PVCTe" x1="32" x2="32" y1="6.833" y2="58.413" gradientUnits="userSpaceOnUse" spreadMethod="reflect">
    <stop offset="0" stop-color="#1a6dff" />
    <stop offset="1" stop-color="#c822ff" />
  </linearGradient>
  <path fill="url(#s66JRfE6sufljUW91PVCTe)" d="M53,15h-3V9c0-1.654-1.346-3-3-3h-8c-1.654,0-3,1.346-3,3v6H11c-1.654,0-3,1.346-3,3v34 c0,1.654,1.346,3,3,3v1c0,1.103,0.897,2,2,2h38c1.103,0,2-0.897,2-2v-1c1.654,0,3-1.346,3-3V18C56,16.346,54.654,15,53,15z M54,18v3 h-4v-4h3C53.552,17,54,17.448,54,18z M45.348,42.203C44.668,42.073,43.889,42,43,42c-0.889,0-1.667,0.073-2.348,0.203l-2.345-3.127 C38.91,38.637,40.254,38,43,38s4.09,0.637,4.693,1.076L45.348,42.203z M38,9c0-0.552,0.448-1,1-1h8c0.552,0,1,0.448,1,1v7v20.941 C46.952,36.431,45.368,36,43,36s-3.952,0.431-5,0.941V16V9z M11,17h25v4H10v-3C10,17.448,10.448,17,11,17z M51,56H13v-1h38V56z M53,53H11c-0.552,0-1-0.448-1-1V23h26v16.333l5.399,7.2c0.382,0.509,0.965,0.801,1.601,0.801s1.219-0.292,1.6-0.801l5.4-7.2V23h4 v29C54,52.552,53.552,53,53,53z" />
  <linearGradient id="s66JRfE6sufljUW91PVCTf" x1="23" x2="23" y1="6.833" y2="58.413" gradientUnits="userSpaceOnUse" spreadMethod="reflect">
    <stop offset="0" stop-color="#1a6dff" />
    <stop offset="1" stop-color="#c822ff" />
  </linearGradient>
  <path fill="url(#s66JRfE6sufljUW91PVCTf)" d="M14 45H32V47H14z" />
  <linearGradient id="s66JRfE6sufljUW91PVCTg" x1="23" x2="23" y1="6.833" y2="58.413" gradientUnits="userSpaceOnUse" spreadMethod="reflect">
    <stop offset="0" stop-color="#1a6dff" />
    <stop offset="1" stop-color="#c822ff" />
  </linearGradient>
  <path fill="url(#s66JRfE6sufljUW91PVCTg)" d="M14 41H32V43H14z" />
  <linearGradient id="s66JRfE6sufljUW91PVCTh" x1="18" x2="18" y1="6.833" y2="58.413" gradientUnits="userSpaceOnUse" spreadMethod="reflect">
    <stop offset="0" stop-color="#1a6dff" />
    <stop offset="1" stop-color="#c822ff" />
  </linearGradient>
  <path fill="url(#s66JRfE6sufljUW91PVCTh)" d="M14 29H22V31H14z" />
  <linearGradient id="s66JRfE6sufljUW91PVCTi" x1="28" x2="28" y1="6.833" y2="58.413" gradientUnits="userSpaceOnUse" spreadMethod="reflect">
    <stop offset="0" stop-color="#1a6dff" />
    <stop offset="1" stop-color="#c822ff" />
  </linearGradient>
  <path fill="url(#s66JRfE6sufljUW91PVCTi)" d="M24 29H32V31H24z" />
  <linearGradient id="s66JRfE6sufljUW91PVCTj" x1="28" x2="28" y1="6.833" y2="58.413" gradientUnits="userSpaceOnUse" spreadMethod="reflect">
    <stop offset="0" stop-color="#1a6dff" />
    <stop offset="1" stop-color="#c822ff" />
  </linearGradient>
  <path fill="url(#s66JRfE6sufljUW91PVCTj)" d="M24 37H32V39H24z" />
  <linearGradient id="s66JRfE6sufljUW91PVCTk" x1="28" x2="28" y1="6.833" y2="58.413" gradientUnits="userSpaceOnUse" spreadMethod="reflect">
    <stop offset="0" stop-color="#1a6dff" />
    <stop offset="1" stop-color="#c822ff" />
  </linearGradient>
  <path fill="url(#s66JRfE6sufljUW91PVCTk)" d="M24 33H32V35H24z" />
</svg>