<?xml version="1.0" encoding="utf-8"?>
<svg xmlns="http://www.w3.org/2000/svg" viewBox="0 0 64 64" width="60" height="60">
  <linearGradient id="fAn94tB9gLky1DsMHWtQ9a" x1="32" x2="32" y1="6" y2="53.719" gradientUnits="userSpaceOnUse">
    <stop offset="0" stop-color="#1a6dff" />
    <stop offset="1" stop-color="#c822ff" />
  </linearGradient>
  <path fill="url(#fAn94tB9gLky1DsMHWtQ9a)" d="M49,36.191V21c0-1.654,1.346-3,3-3h2v-3c0-2.757-2.243-5-5-5H38.618l-1.171-2.341C36.936,6.636,35.907,6,34.763,6h-9.525c-1.145,0-2.173,0.636-2.685,1.659L21.382,10H11c-2.757,0-5,2.243-5,5v3h2c1.654,0,3,1.346,3,3v26c0,3.859,3.141,7,7,7h20.521c2.019,2.441,5.07,4,8.479,4c6.065,0,11-4.935,11-11C58,41.618,54.112,37.135,49,36.191z M24.342,8.554C24.513,8.212,24.855,8,25.237,8h9.525c0.382,0,0.725,0.212,0.896,0.554L36.382,10H23.618L24.342,8.554z M8,16v-1c0-1.654,1.346-3,3-3h38c1.654,0,3,1.346,3,3v1H8z M18,52c-2.757,0-5-2.243-5-5V21c0-1.13-0.391-2.162-1.026-3H17v4h2v-4h4v6h2v-6h4v9h2v-9h4v6h2v-6h4v4h2v-4h5.026C47.391,18.838,47,19.87,47,21v15c-6.065,0-11,4.935-11,11c0,1.801,0.444,3.498,1.214,5H18z M47,56c-4.963,0-9-4.037-9-9s4.037-9,9-9s9,4.037,9,9S51.963,56,47,56z" />
  <linearGradient id="fAn94tB9gLky1DsMHWtQ9b" x1="47" x2="47" y1="41.833" y2="51.616" gradientUnits="userSpaceOnUse">
    <stop offset="0" stop-color="#6dc7ff" />
    <stop offset="1" stop-color="#e6abff" />
  </linearGradient>
  <polygon fill="url(#fAn94tB9gLky1DsMHWtQ9b)" points="51.243,44.171 49.829,42.757 47,45.585 44.171,42.757 42.757,44.171 45.586,47 42.757,49.828 44.171,51.242 47,48.414 49.829,51.242 51.243,49.828 48.414,47" />
  <linearGradient id="fAn94tB9gLky1DsMHWtQ9c" x1="20" x2="20" y1="40.129" y2="49.352" gradientUnits="userSpaceOnUse">
    <stop offset="0" stop-color="#6dc7ff" />
    <stop offset="1" stop-color="#e6abff" />
  </linearGradient>
  <path fill="url(#fAn94tB9gLky1DsMHWtQ9c)" d="M24,49h-5c-1.657,0-3-1.343-3-3v-5L24,49z" />
</svg>