<?xml version="1.0" encoding="utf-8"?>
<svg xmlns="http://www.w3.org/2000/svg" viewBox="0 0 64 64" width="60" height="60">
  <linearGradient id="xLIKpxnzNvl5cd7OjEW24a" x1="32" x2="32" y1="22" y2="70" gradientTransform="translate(0 -14)" gradientUnits="userSpaceOnUse" spreadMethod="reflect">
    <stop offset="0" stop-color="#1a6dff" />
    <stop offset="1" stop-color="#c822ff" />
  </linearGradient>
  <path fill="url(#xLIKpxnzNvl5cd7OjEW24a)" d="M58,27h-3.635L35.949,11.492C35.696,9.528,34.032,8,32,8s-3.696,1.528-3.949,3.492L9.635,27H6 c-0.552,0-1,0.447-1,1v27c0,0.553,0.448,1,1,1h52c0.552,0,1-0.447,1-1V28C59,27.447,58.552,27,58,27z M32,10c1.103,0,2,0.897,2,2 s-0.897,2-2,2s-2-0.897-2-2S30.897,10,32,10z M28.437,13.781C29.095,15.091,30.437,16,32,16s2.905-0.909,3.563-2.219L51.26,27H12.74 L28.437,13.781z M7,54v-2h5v-2H7v-2h3v-2H7V29h50v17h-3v2h3v2h-5v2h5v2H7z" />
  <linearGradient id="xLIKpxnzNvl5cd7OjEW24b" x1="32" x2="32" y1="51" y2="61" gradientTransform="translate(0 -14)" gradientUnits="userSpaceOnUse" spreadMethod="reflect">
    <stop offset="0" stop-color="#6dc7ff" />
    <stop offset="1" stop-color="#e6abff" />
  </linearGradient>
  <path fill="url(#xLIKpxnzNvl5cd7OjEW24b)" d="M33,47h-2c-1.105,0-2-0.895-2-2v-6c0-1.105,0.895-2,2-2h2c1.105,0,2,0.895,2,2v6 C35,46.105,34.105,47,33,47z M31.5,45h1c0.276,0,0.5-0.224,0.5-0.5v-5c0-0.276-0.224-0.5-0.5-0.5h-1c-0.276,0-0.5,0.224-0.5,0.5v5 C31,44.776,31.224,45,31.5,45z" />
  <linearGradient id="xLIKpxnzNvl5cd7OjEW24c" x1="48" x2="48" y1="51" y2="61" gradientTransform="translate(0 -14)" gradientUnits="userSpaceOnUse" spreadMethod="reflect">
    <stop offset="0" stop-color="#6dc7ff" />
    <stop offset="1" stop-color="#e6abff" />
  </linearGradient>
  <path fill="url(#xLIKpxnzNvl5cd7OjEW24c)" d="M51,38.5v-1c0-0.276-0.224-0.5-0.5-0.5H47c-1.105,0-2,0.895-2,2v6c0,1.105,0.895,2,2,2h3.5 c0.276,0,0.5-0.224,0.5-0.5v-1c0-0.276-0.224-0.5-0.5-0.5H47v-2h3.5c0.276,0,0.5-0.224,0.5-0.5v-1c0-0.276-0.224-0.5-0.5-0.5H47v-2 h3.5C50.776,39,51,38.776,51,38.5z" />
  <linearGradient id="xLIKpxnzNvl5cd7OjEW24d" x1="16" x2="16" y1="37" y2="47" gradientUnits="userSpaceOnUse" spreadMethod="reflect">
    <stop offset="0" stop-color="#6dc7ff" />
    <stop offset="1" stop-color="#e6abff" />
  </linearGradient>
  <path fill="url(#xLIKpxnzNvl5cd7OjEW24d)" d="M17,44.5L17,44.5c0,0.276-0.224,0.5-0.5,0.5h-1c-0.276,0-0.5-0.224-0.5-0.5v-5 c0-0.276,0.224-0.5,0.5-0.5h1c0.276,0,0.5,0.224,0.5,0.5l0,0c0,0.276,0.224,0.5,0.5,0.5h1c0.276,0,0.5-0.224,0.5-0.5V39 c0-1.105-0.895-2-2-2h-2c-1.105,0-2,0.895-2,2v6c0,1.105,0.895,2,2,2h2c1.105,0,2-0.895,2-2v-0.5c0-0.276-0.224-0.5-0.5-0.5h-1 C17.224,44,17,44.224,17,44.5z" />
  <linearGradient id="xLIKpxnzNvl5cd7OjEW24e" x1="24" x2="24" y1="47" y2="37" gradientTransform="matrix(1 0 0 -1 0 84)" gradientUnits="userSpaceOnUse" spreadMethod="reflect">
    <stop offset="0" stop-color="#6dc7ff" />
    <stop offset="1" stop-color="#e6abff" />
  </linearGradient>
  <path fill="url(#xLIKpxnzNvl5cd7OjEW24e)" d="M26.5,47H23c-1.105,0-2-0.895-2-2v-7.5c0-0.276,0.224-0.5,0.5-0.5h1 c0.276,0,0.5,0.224,0.5,0.5V39v1v2.5V44v0.5c0,0.276,0.224,0.5,0.5,0.5h3c0.276,0,0.5,0.224,0.5,0.5v1C27,46.776,26.776,47,26.5,47z" />
  <linearGradient id="xLIKpxnzNvl5cd7OjEW24f" x1="40" x2="40" y1="-55" y2="-65" gradientTransform="matrix(1 0 0 -1 0 -18)" gradientUnits="userSpaceOnUse" spreadMethod="reflect">
    <stop offset="0" stop-color="#6dc7ff" />
    <stop offset="1" stop-color="#e6abff" />
  </linearGradient>
  <path fill="url(#xLIKpxnzNvl5cd7OjEW24f)" d="M41,47h-3.5c-0.276,0-0.5-0.224-0.5-0.5v-1c0-0.276,0.224-0.5,0.5-0.5H41v-2h-2 c-1.105,0-2-0.895-2-2v-2c0-1.105,0.895-2,2-2h2.5c0.276,0,0.5,0.224,0.5,0.5v1c0,0.276-0.224,0.5-0.5,0.5H39v2h2 c1.105,0,2,0.895,2,2v2C43,46.105,42.105,47,41,47z" />
</svg>