<?xml version="1.0" encoding="utf-8"?>
<svg xmlns="http://www.w3.org/2000/svg" viewBox="0 0 48 48" width="32" height="32">
  <path fill="#455a64" d="M16 36c0 0-2.214-4-8-4s-8 4-8 4v3h16V36zM48 36c0 0-2.214-4-8-4s-8 4-8 4v3h16V36z" />
  <path fill="#ff9800" d="M10.001 29h-4v3c0 0-.124 2 1.959 2s2.041-2 2.041-2L10.001 29zM42.001 29h-4v3c0 0-.124 2 1.959 2s2.041-2 2.041-2V29z" />
  <path fill="#ffb74d" d="M8 31c-2.758 0-5-2.243-5-5s2.242-5 5-5 5 2.243 5 5S10.758 31 8 31M40 31c-2.758 0-5-2.243-5-5s2.242-5 5-5 5 2.243 5 5S42.758 31 40 31" />
  <path fill="#424242" d="M7.781 19C5.344 19.219 3 20.93 3 24.574V26l1 1v-3l6.31-2.201L12 24v3l1-1v-1.202c0-2.414-.135-4.206-3-4.798l-.485-1H7.781zM39.781 19C37.344 19.219 35 20.93 35 24.574V26l1 1v-3l6.31-2.201L44 24v3l1-1v-1.202c0-2.414-.135-4.206-3-4.798l-.485-1H39.781z" />
  <path fill="#ffa726" d="M16,20.5c0-0.8,0.7-1.5,1.5-1.5s1.5,0.7,1.5,1.5S18.3,22,17.5,22S16,21.3,16,20.5 M29,20.5 c0,0.8,0.7,1.5,1.5,1.5c0.8,0,1.5-0.7,1.5-1.5S31.3,19,30.5,19C29.7,19,29,19.7,29,20.5" />
  <path fill="#ff9800" d="M20,29v-4h8v4c0,0,0,4-4,4S20,29,20,29z" />
  <path fill="#ffb74d" d="M17,21.1c0,3.8,3.1,6.9,7,6.9s7-3.1,7-6.9v-4.4c0-3.8-14-5.9-14,0V21.1z" />
  <path fill="#424242" d="M21.6,9l-0.8,1.6c-4,0.8-4.8,4.4-4.8,7.6V19l2,2v-4l2.8-3l9.2,3v4l2-2v-1.8c0-3.9-3.1-8.2-8-8.2H21.6 z" />
  <path fill="#784719" d="M22,20c0,0.6-0.4,1-1,1s-1-0.4-1-1s0.4-1,1-1S22,19.4,22,20 M28,20c0-0.6-0.4-1-1-1s-1,0.4-1,1 s0.4,1,1,1S28,20.6,28,20" />
  <path fill="#78909c" d="M20.3,29c0,0-8.3,1.6-8.3,10h24c0-8.5-8-10-8-10l-4,2l-4-2" />
  <path fill="#fff" d="M28 29L24 30 20 29 24 38z" />
  <path fill="#d32f2f" d="M26 32L24 30 22 32 23 33 22.7 35.1 24 38 25.3 35.1 25 33z" />
</svg>