<?xml version="1.0" encoding="utf-8"?>
<svg xmlns="http://www.w3.org/2000/svg" viewBox="0 0 64 64" width="32" height="32">
  <linearGradient id="mMTUEKopONrnZaQtF1CITa" x1="22.489" x2="22.489" y1="23.167" y2="41.033" gradientUnits="userSpaceOnUse" spreadMethod="reflect">
    <stop offset="0" stop-color="#6dc7ff" />
    <stop offset="1" stop-color="#e6abff" />
  </linearGradient>
  <path fill="url(#mMTUEKopONrnZaQtF1CITa)" d="M37.974,30.317l-11.474-6.191C25.829,23.763,25,24.228,25,24.967V29c0,0.552-0.448,1-1,1H7 c-0.552,0-1,0.448-1,1v2c0,0.552,0.448,1,1,1h17c0.552,0,1,0.448,1,1v4.033c0,0.738,0.829,1.203,1.499,0.841l11.474-6.191 C39.313,32.961,39.313,31.039,37.974,30.317z" />
  <linearGradient id="mMTUEKopONrnZaQtF1CITb" x1="34.284" x2="34.284" y1="7" y2="57.168" gradientUnits="userSpaceOnUse" spreadMethod="reflect">
    <stop offset="0" stop-color="#1a6dff" />
    <stop offset="1" stop-color="#c822ff" />
  </linearGradient>
  <path fill="url(#mMTUEKopONrnZaQtF1CITb)" d="M34,56c-11.164,0-21.019-7.899-23.431-18.782l1.952-0.434C14.733,46.76,23.766,54,34,54 c12.131,0,22-9.869,22-22s-9.869-22-22-22c-10.234,0-19.267,7.24-21.479,17.216l-1.952-0.434C12.981,15.899,22.836,8,34,8 c13.233,0,24,10.767,24,24S47.233,56,34,56z" />
  <linearGradient id="mMTUEKopONrnZaQtF1CITc" x1="34.35" x2="34.35" y1="7" y2="57.168" gradientUnits="userSpaceOnUse" spreadMethod="reflect">
    <stop offset="0" stop-color="#1a6dff" />
    <stop offset="1" stop-color="#c822ff" />
  </linearGradient>
  <path fill="url(#mMTUEKopONrnZaQtF1CITc)" d="M34,52c-9.003,0-16.939-6.061-19.3-14.737l1.93-0.525C18.754,44.546,25.897,50,34,50 c9.925,0,18-8.075,18-18s-8.075-18-18-18c-8.103,0-15.246,5.454-17.371,13.263l-1.93-0.525C17.061,18.061,24.998,12,34,12 c11.028,0,20,8.972,20,20S45.028,52,34,52z" />
</svg>