<?xml version="1.0" encoding="utf-8"?>
<svg xmlns="http://www.w3.org/2000/svg" viewBox="0 0 48 48" width="32" height="32">
  <path fill="#ff7043" d="M33 13L24 3 15 13z" />
  <path fill="#ff7043" d="M21 9H27V29H21z" />
  <path fill="#a5d6a7" d="M4 20H43V42H4z" />
  <path fill="#388e3c" d="M4,42h40V20H4V42z M42,22v18H6V22H42z" />
  <path fill="#388e3c" d="M12 29A2 2 0 1 0 12 33 2 2 0 1 0 12 29zM36 29A2 2 0 1 0 36 33 2 2 0 1 0 36 29zM24 24A7 7 0 1 0 24 38 7 7 0 1 0 24 24zM38.779 21C38.3 21.532 38 22.228 38 23c0 1.657 1.343 3 3 3 .772 0 1.468-.3 2-.779V21H38.779zM9.221 21H5v4.221C5.532 25.7 6.228 26 7 26c1.657 0 3-1.343 3-3C10 22.228 9.7 21.532 9.221 21zM9.221 41C9.7 40.468 10 39.772 10 39c0-1.657-1.343-3-3-3-.772 0-1.468.3-2 .779V41H9.221zM43 41v-4.221C42.468 36.3 41.772 36 41 36c-1.657 0-3 1.343-3 3 0 .772.3 1.468.779 2H43z" />
</svg>