<?xml version="1.0" encoding="utf-8"?>
<svg xmlns="http://www.w3.org/2000/svg" viewBox="0 0 64 64" width="60" height="60">
  <linearGradient id="tjujEXVcoQebP2ayiGTvra" x1="32" x2="32" y1="10.917" y2="15.382" gradientUnits="userSpaceOnUse" spreadMethod="reflect">
    <stop offset="0" stop-color="#6dc7ff" />
    <stop offset="1" stop-color="#e6abff" />
  </linearGradient>
  <path fill="url(#tjujEXVcoQebP2ayiGTvra)" d="M35,15h-6c-0.552,0-1-0.448-1-1v-2c0-0.552,0.448-1,1-1h6c0.552,0,1,0.448,1,1v2 C36,14.552,35.552,15,35,15z" />
  <linearGradient id="tjujEXVcoQebP2ayiGTvrb" x1="32" x2="32" y1="5.833" y2="58.669" gradientUnits="userSpaceOnUse" spreadMethod="reflect">
    <stop offset="0" stop-color="#1a6dff" />
    <stop offset="1" stop-color="#c822ff" />
  </linearGradient>
  <path fill="url(#tjujEXVcoQebP2ayiGTvrb)" d="M52.537,13.123l-5.66-5.66C45.934,6.52,44.68,6,43.345,6H15c-2.757,0-5,2.243-5,5v36 c0,2.757,2.243,5,5,5h17v3c0,1.654,1.346,3,3,3h8c1.654,0,3-1.346,3-3v-3h3c2.757,0,5-2.243,5-5V16.655 C54,15.32,53.48,14.066,52.537,13.123z M44,8.08V17c0,0.552-0.448,1-1,1h-1.184C41.928,17.686,42,17.353,42,17V8h1.345 C43.567,8,43.785,8.031,44,8.08z M20,8h2v9c0,0.353,0.072,0.686,0.184,1H21c-0.552,0-1-0.448-1-1V8z M24,17V8h16v9 c0,0.552-0.448,1-1,1H25C24.448,18,24,17.552,24,17z M38.139,27.379c0.264-0.439,0.69-0.487,0.861-0.487s0.598,0.048,0.861,0.487 l1.214,2.024c-1.26,0.761-2.892,0.759-4.152,0L38.139,27.379z M35.897,31.115C36.833,31.685,37.889,32,39,32 s2.167-0.315,3.103-0.885l1.848,3.081C43.701,35.205,41.59,36,39,36s-4.701-0.795-4.951-1.805L35.897,31.115z M38,50V37.957 C38.329,37.979,38.66,38,39,38c0.334,0,0.668-0.015,1-0.038V50H38z M32,42c-1.654,0-3-1.346-3-3s1.346-3,3-3V42z M32.286,33.246 c-0.139,0.23-0.211,0.489-0.249,0.754H32c0,0.06,0.007,0.129,0.011,0.196C32.01,34.224,32,34.25,32,34.277V34c-2.757,0-5,2.243-5,5 s2.243,5,5,5v2H20V33c0-0.552,0.448-1,1-1h12.034L32.286,33.246z M20,50v-2h12v2H20z M43,56h-8c-0.552,0-1-0.448-1-1V36.918 c0.151,0.083,0.295,0.168,0.469,0.246c0.455,0.202,0.98,0.358,1.531,0.489V50v1v1h6v-1v-1V37.666c0.736-0.174,1.415-0.419,2-0.737 V55C44,55.552,43.552,56,43,56z M52,47c0,1.654-1.346,3-3,3h-3V34.277c0-0.035-0.012-0.068-0.014-0.104 C45.989,34.115,46,34.06,46,34h-0.038c-0.037-0.265-0.109-0.523-0.248-0.752l-4.139-6.898c-0.548-0.913-1.511-1.458-2.576-1.458 c-0.914,0-1.734,0.418-2.3,1.108H18v2h17.434l-1.2,2H21c-1.654,0-3,1.346-3,3v17h-3c-1.654,0-3-1.346-3-3V11c0-1.654,1.346-3,3-3h3 v9c0,1.654,1.346,3,3,3h22c1.654,0,3-1.346,3-3V9.414l5.123,5.123C51.681,15.095,52,15.866,52,16.655V47z" />
  <linearGradient id="tjujEXVcoQebP2ayiGTvrc" x1="32" x2="32" y1="5.833" y2="58.669" gradientUnits="userSpaceOnUse" spreadMethod="reflect">
    <stop offset="0" stop-color="#1a6dff" />
    <stop offset="1" stop-color="#c822ff" />
  </linearGradient>
  <path fill="url(#tjujEXVcoQebP2ayiGTvrc)" d="M18 22H46V24H18z" />
</svg>