<?xml version="1.0" encoding="utf-8"?>
<svg xmlns="http://www.w3.org/2000/svg" viewBox="0 0 64 64" width="32" height="32">
  <linearGradient id="jgHNFDHSD0KJq8JtknN2ba" x1="25" x2="25" y1="5.25" y2="58.182" gradientUnits="userSpaceOnUse" spreadMethod="reflect">
    <stop offset="0" stop-color="#1a6dff" />
    <stop offset="1" stop-color="#c822ff" />
  </linearGradient>
  <path fill="url(#jgHNFDHSD0KJq8JtknN2ba)" d="M39,58H11c-2.757,0-5-2.243-5-5V11c0-2.757,2.243-5,5-5h28c2.757,0,5,2.243,5,5v17h-2V11 c0-1.654-1.346-3-3-3H11c-1.654,0-3,1.346-3,3v42c0,1.654,1.346,3,3,3h28c1.654,0,3-1.346,3-3V36h2v17C44,55.757,41.757,58,39,58z" />
  <linearGradient id="jgHNFDHSD0KJq8JtknN2bb" x1="25" x2="25" y1="5.25" y2="58.182" gradientUnits="userSpaceOnUse" spreadMethod="reflect">
    <stop offset="0" stop-color="#1a6dff" />
    <stop offset="1" stop-color="#c822ff" />
  </linearGradient>
  <path fill="url(#jgHNFDHSD0KJq8JtknN2bb)" d="M38,54H12c-1.103,0-2-0.897-2-2V12c0-1.103,0.897-2,2-2h26c1.103,0,2,0.897,2,2v16h-2V12H12 v40h26V36h2v16C40,53.103,39.103,54,38,54z" />
  <linearGradient id="jgHNFDHSD0KJq8JtknN2bc" x1="17" x2="17" y1="5.25" y2="58.182" gradientUnits="userSpaceOnUse" spreadMethod="reflect">
    <stop offset="0" stop-color="#1a6dff" />
    <stop offset="1" stop-color="#c822ff" />
  </linearGradient>
  <path fill="url(#jgHNFDHSD0KJq8JtknN2bc)" d="M18,35.184v-4.368c1.162-0.415,2-1.514,2-2.816c0-1.654-1.346-3-3-3s-3,1.346-3,3 c0,1.302,0.838,2.401,2,2.815v4.369c-1.162,0.415-2,1.514-2,2.816c0,1.654,1.346,3,3,3s3-1.346,3-3 C20,36.698,19.162,35.599,18,35.184z M17,27c0.552,0,1,0.448,1,1s-0.448,1-1,1s-1-0.448-1-1S16.448,27,17,27z M17,39 c-0.552,0-1-0.448-1-1s0.448-1,1-1s1,0.448,1,1S17.552,39,17,39z" />
  <linearGradient id="jgHNFDHSD0KJq8JtknN2bd" x1="43" x2="43" y1="24" y2="40" gradientUnits="userSpaceOnUse" spreadMethod="reflect">
    <stop offset="0" stop-color="#6dc7ff" />
    <stop offset="1" stop-color="#e6abff" />
  </linearGradient>
  <path fill="url(#jgHNFDHSD0KJq8JtknN2bd)" d="M57.52,31.179l-9.845-6.011C46.959,24.73,46,25.2,46,25.988V30H29c-0.552,0-1,0.448-1,1v2 c0,0.552,0.448,1,1,1h17v4.011c0,0.788,0.959,1.258,1.675,0.821l9.845-6.012C58.16,32.43,58.16,31.57,57.52,31.179z" />
</svg>