<?xml version="1.0" encoding="utf-8"?>
<svg xmlns="http://www.w3.org/2000/svg" viewBox="0 0 30 30" width="32" height="32">
  <path d="M9 4C6.239 4 4 6.239 4 9L4 10C4 12.761 6.239 15 9 15C11.761 15 14 12.761 14 10L14 9C14 6.239 11.761 4 9 4 z M 21 4C18.239 4 16 6.239 16 9L16 10C16 12.761 18.239 15 21 15C23.761 15 26 12.761 26 10L26 9C26 6.239 23.761 4 21 4 z M 9 6C10.654 6 12 7.346 12 9L12 10C12 11.654 10.654 13 9 13C7.346 13 6 11.654 6 10L6 9C6 7.346 7.346 6 9 6 z M 8.9980469 17C5.7200469 17 1.5146875 18.874062 0.3046875 20.914062C-0.4423125 22.174062 0.26909375 24 1.4960938 24L13.496094 24L16.503906 24L28.503906 24C29.730906 24 30.441359 22.174063 29.693359 20.914062C28.483359 18.874062 24.276047 17 20.998047 17C19.047018 17 16.7784 17.670245 14.998047 18.638672C13.216701 17.671691 10.948304 17 8.9980469 17 z M 8.9980469 19C11.768047 19 15.207609 20.640594 15.974609 21.933594C15.985609 21.951594 15.990141 21.975 15.994141 22L2.0039062 22C2.0079063 21.975 2.0153906 21.951594 2.0253906 21.933594C2.7933906 20.640594 6.2290469 19 8.9980469 19 z" fill="#FFFFFF" />
</svg>